<?xml version="1.0" encoding="utf-8"?><!-- Generator: Adobe Illustrator 22.1.0, SVG Export Plug-In . SVG Version: 6.00 Build 0)  --><svg version="1.1" id="Layer_1" xmlns="http://www.w3.org/2000/svg" xmlns:xlink="http://www.w3.org/1999/xlink" x="0px" y="0px"	 viewBox="0 0 35 35" style="enable-background:new 0 0 35 35;" xml:space="preserve"><style type="text/css">	.st0{fill:#DA291C;}</style><g>	<path class="st0" d="M17.5,0C7.8,0,0,7.8,0,17.5S7.8,35,17.5,35C27.2,35,35,27.2,35,17.5S27.2,0,17.5,0z M17.5,32		C9.5,32,3,25.5,3,17.5S9.5,3,17.5,3S32,9.5,32,17.5S25.5,32,17.5,32z"/>	<polygon class="st0" points="20,15.1 17.5,8 15,15.1 7.5,15.3 13.4,19.8 11.3,27 17.5,22.8 23.7,27 21.6,19.8 27.5,15.3 	"/></g></svg>